<?xml version="1.0" encoding="UTF-8"?>
<!DOCTYPE svg PUBLIC "-//W3C//DTD SVG 1.1//EN" "http://www.w3.org/Graphics/SVG/1.1/DTD/svg11.dtd">
<svg xmlns="http://www.w3.org/2000/svg" version="1.1" width="595px" height="415px" style="shape-rendering:geometricPrecision; text-rendering:geometricPrecision; image-rendering:optimizeQuality; fill-rule:evenodd; clip-rule:evenodd" xmlns:xlink="http://www.w3.org/1999/xlink">
<g><path style="opacity:0.69" fill="#bebebe" d="M 22.5,9.5 C 25.2406,9.70732 27.5739,10.7073 29.5,12.5C 28.5386,14.2646 28.2053,16.2646 28.5,18.5C 25.8732,16.3993 22.8732,15.0659 19.5,14.5C 20.925,13.078 21.925,11.4113 22.5,9.5 Z"/></g>
<g><path style="opacity:0.597" fill="#868686" d="M 74.5,9.5 C 76.8568,9.33669 79.1902,9.50335 81.5,10C 80.8333,11.3333 80.1667,12.6667 79.5,14C 83.6245,15.0101 87.6245,15.1767 91.5,14.5C 91.443,18.1331 92.443,18.2998 94.5,15C 98.8288,13.8485 102.662,14.6819 106,17.5C 106.483,16.552 106.649,15.552 106.5,14.5C 109.979,14.9931 113.313,14.9931 116.5,14.5C 118.374,14.3898 119.874,15.0564 121,16.5C 122.669,14.8309 123.502,12.8309 123.5,10.5C 125.5,10.5 127.5,10.5 129.5,10.5C 129.715,12.7743 130.382,14.941 131.5,17C 130.833,18.6667 130.167,20.3333 129.5,22C 130.78,24.3597 131.447,26.8597 131.5,29.5C 125.051,29.3805 122.051,26.0472 122.5,19.5C 121.513,22.7683 121.18,26.1016 121.5,29.5C 119.833,29.5 118.167,29.5 116.5,29.5C 116.665,26.4816 116.498,23.4816 116,20.5C 114.605,19.1854 113.605,19.5188 113,21.5C 112.503,24.146 112.336,26.8127 112.5,29.5C 110.5,29.5 108.5,29.5 106.5,29.5C 106.649,28.448 106.483,27.448 106,26.5C 97.02,32.2781 91.52,29.9447 89.5,19.5C 88.5224,19.9767 87.6891,20.6433 87,21.5C 86.5026,24.146 86.3359,26.8127 86.5,29.5C 84.5,29.5 82.5,29.5 80.5,29.5C 80.5,26.1667 80.5,22.8333 80.5,19.5C 79.5,19.5 78.5,19.5 77.5,19.5C 77.5,22.8333 77.5,26.1667 77.5,29.5C 75.8333,29.5 74.1667,29.5 72.5,29.5C 72.665,26.1501 72.4983,22.8168 72,19.5C 72.5365,27.131 69.0365,30.4643 61.5,29.5C 61.5,31.1667 61.5,32.8333 61.5,34.5C 59.5,34.5 57.5,34.5 55.5,34.5C 55.5,27.8333 55.5,21.1667 55.5,14.5C 58.8021,15.1539 61.9688,15.1539 65,14.5C 67.0342,14.3536 68.7009,15.0203 70,16.5C 71.7595,14.2788 73.2595,11.9454 74.5,9.5 Z M 62.5,19.5 C 63.5,19.5 64.5,19.5 65.5,19.5C 65.5,21.1667 65.5,22.8333 65.5,24.5C 61.7162,24.4747 60.7162,22.8081 62.5,19.5 Z M 96.5,19.5 C 100.138,18.7366 101.638,20.0699 101,23.5C 97.3307,25.0093 95.8307,23.6759 96.5,19.5 Z"/></g>
<g><path style="opacity:0.619" fill="#888888" d="M 29.5,12.5 C 33.6302,14.8363 35.2969,18.5029 34.5,23.5C 32.9505,24.4408 31.2838,25.1075 29.5,25.5C 28.7814,23.2362 28.448,20.9029 28.5,18.5C 28.2053,16.2646 28.5386,14.2646 29.5,12.5 Z"/></g>
<g><path style="opacity:0.605" fill="#848484" d="M 40.5,14.5 C 42.1667,14.5 43.8333,14.5 45.5,14.5C 45.1796,17.8984 45.513,21.2317 46.5,24.5C 47.7989,23.91 48.6322,22.91 49,21.5C 49.4966,19.1902 49.6633,16.8568 49.5,14.5C 51.1667,14.5 52.8333,14.5 54.5,14.5C 54.5,19.5 54.5,24.5 54.5,29.5C 51.3595,28.9107 48.3595,28.9107 45.5,29.5C 43.626,29.6102 42.126,28.9436 41,27.5C 40.501,23.1794 40.3343,18.8461 40.5,14.5 Z"/></g>
<g><path style="opacity:0.622" fill="#8d8d8d" d="M 22.5,9.5 C 21.925,11.4113 20.925,13.078 19.5,14.5C 11.9804,21.1436 12.9804,25.8103 22.5,28.5C 23.8333,29.8333 25.1667,31.1667 26.5,32.5C 25.376,33.8086 23.876,34.4753 22,34.5C 18.0038,33.253 14.1705,31.5863 10.5,29.5C 7.82659,21.6845 9.49326,15.1845 15.5,10C 17.8098,9.50335 20.1432,9.33669 22.5,9.5 Z"/></g>
<g><path style="opacity:0.628" fill="#bbbbbb" d="M 34.5,23.5 C 34.8567,29.0232 32.1901,32.0232 26.5,32.5C 25.1667,31.1667 23.8333,29.8333 22.5,28.5C 24.7128,27.2271 27.0462,26.2271 29.5,25.5C 31.2838,25.1075 32.9505,24.4408 34.5,23.5 Z"/></g>
<g><path style="opacity:1" fill="#dfe0e1" d="M 467.5,63.5 C 417.001,64.1368 366.335,64.1368 315.5,63.5C 316.263,62.7321 317.263,62.2321 318.5,62C 367.5,61.3333 416.5,61.3333 465.5,62C 466.416,62.2784 467.082,62.7784 467.5,63.5 Z"/></g>
<g><path style="opacity:1" fill="#b4b6b7" d="M 314.5,64.5 C 314.5,63.8333 314.833,63.5 315.5,63.5C 366.335,64.1368 417.001,64.1368 467.5,63.5C 469.674,63.7497 471.341,64.7497 472.5,66.5C 419.826,66.3196 367.16,65.653 314.5,64.5 Z"/></g>
<g><path style="opacity:1" fill="#757678" d="M 312.5,65.5 C 346.881,65.8498 381.215,67.3498 415.5,70C 423.774,70.8916 431.108,73.8916 437.5,79C 433.975,79.1787 430.641,79.6787 427.5,80.5C 417.5,80.5 407.5,80.5 397.5,80.5C 398.609,79.71 399.942,79.21 401.5,79C 394.943,74.3683 387.61,71.7016 379.5,71C 356.588,68.2661 333.588,67.0994 310.5,67.5C 310.833,66.5 311.5,65.8333 312.5,65.5 Z"/></g>
<g><path style="opacity:1" fill="#59595b" d="M 309.5,68.5 C 309.5,67.8333 309.833,67.5 310.5,67.5C 333.588,67.0994 356.588,68.2661 379.5,71C 387.61,71.7016 394.943,74.3683 401.5,79C 399.942,79.21 398.609,79.71 397.5,80.5C 387.167,80.5 376.833,80.5 366.5,80.5C 369.305,79.6805 372.305,79.1805 375.5,79C 372.661,77.0797 369.661,75.4131 366.5,74C 347.797,69.706 328.797,67.8727 309.5,68.5 Z"/></g>
<g><path style="opacity:0.947" fill="#020202" d="M 304.5,74.5 C 313.506,74.3336 322.506,74.5002 331.5,75C 333.844,75.8372 335.844,77.1706 337.5,79C 330.987,79.1721 324.653,79.6721 318.5,80.5C 318.168,96.2454 318.501,111.245 319.5,125.5C 328.805,121.511 337.138,116.011 344.5,109C 345.745,108.209 347.078,107.709 348.5,107.5C 348.389,108.117 348.056,108.617 347.5,109C 353.167,109.167 358.833,109.333 364.5,109.5C 370.741,109.456 376.741,108.789 382.5,107.5C 384.192,110.869 383.526,113.702 380.5,116C 371.502,115.953 362.502,115.953 353.5,116C 343.599,121.132 333.266,124.965 322.5,127.5C 321.167,127.5 319.833,127.5 318.5,127.5C 318.5,159.833 318.5,192.167 318.5,224.5C 318.5,232.5 318.5,240.5 318.5,248.5C 317.041,248.567 315.708,248.234 314.5,247.5C 313.71,246.599 312.71,245.932 311.5,245.5C 309.355,244.011 307.022,243.011 304.5,242.5C 304.5,241.833 304.167,241.5 303.5,241.5C 302.833,240.833 302.167,240.167 301.5,239.5C 301.333,187.832 301.5,136.166 302,84.5C 302.303,80.9957 303.137,77.6624 304.5,74.5 Z"/></g>
<g><path style="opacity:1" fill="#8d8f90" d="M 312.5,65.5 C 312.842,64.6618 313.508,64.3284 314.5,64.5C 367.16,65.653 419.826,66.3196 472.5,66.5C 476.813,69.7745 479.647,74.1078 481,79.5C 481.5,100.497 481.667,121.497 481.5,142.5C 480.675,138.353 480.175,134.019 480,129.5C 475.333,124.833 470.667,120.167 466,115.5C 465.501,120.489 465.334,125.489 465.5,130.5C 465.5,135.833 465.5,141.167 465.5,146.5C 465.828,157.014 465.494,167.347 464.5,177.5C 464.5,152.833 464.5,128.167 464.5,103.5C 464.5,95.8333 464.5,88.1667 464.5,80.5C 452.167,80.5 439.833,80.5 427.5,80.5C 430.641,79.6787 433.975,79.1787 437.5,79C 431.108,73.8916 423.774,70.8916 415.5,70C 381.215,67.3498 346.881,65.8498 312.5,65.5 Z"/></g>
<g><path style="opacity:1" fill="#414043" d="M 309.5,68.5 C 328.797,67.8727 347.797,69.706 366.5,74C 369.661,75.4131 372.661,77.0797 375.5,79C 372.305,79.1805 369.305,79.6805 366.5,80.5C 359.5,80.5 352.5,80.5 345.5,80.5C 348.641,79.6787 351.975,79.1787 355.5,79C 351.081,76.1238 346.414,73.7905 341.5,72C 330.23,70.5907 318.896,70.0907 307.5,70.5C 307.833,69.5 308.5,68.8333 309.5,68.5 Z"/></g>
<g><path style="opacity:1" fill="#161617" d="M 307.5,70.5 C 318.896,70.0907 330.23,70.5907 341.5,72C 346.414,73.7905 351.081,76.1238 355.5,79C 351.975,79.1787 348.641,79.6787 345.5,80.5C 336.5,80.5 327.5,80.5 318.5,80.5C 324.653,79.6721 330.987,79.1721 337.5,79C 335.844,77.1706 333.844,75.8372 331.5,75C 322.506,74.5002 313.506,74.3336 304.5,74.5C 305.026,72.7697 306.026,71.4363 307.5,70.5 Z"/></g>
<g><path style="opacity:1" fill="#e9e9ea" d="M 318.5,80.5 C 327.5,80.5 336.5,80.5 345.5,80.5C 352.5,80.5 359.5,80.5 366.5,80.5C 376.833,80.5 387.167,80.5 397.5,80.5C 407.5,80.5 417.5,80.5 427.5,80.5C 439.833,80.5 452.167,80.5 464.5,80.5C 464.5,88.1667 464.5,95.8333 464.5,103.5C 462.833,103.5 461.167,103.5 459.5,103.5C 459.5,104.5 459.5,105.5 459.5,106.5C 456.84,100.506 452.506,96.1729 446.5,93.5C 445.486,92.3263 444.153,91.6596 442.5,91.5C 439.34,89 435.673,87.6667 431.5,87.5C 431.158,86.6618 430.492,86.3284 429.5,86.5C 423.195,85.9486 417.195,86.9486 411.5,89.5C 410.036,88.8401 408.369,88.5068 406.5,88.5C 377.594,91.8464 348.594,93.1797 319.5,92.5C 319.5,103.5 319.5,114.5 319.5,125.5C 318.501,111.245 318.168,96.2454 318.5,80.5 Z"/></g>
<g><path style="opacity:0.578" fill="#fefffe" d="M 14.5,84.5 C 25.8413,83.8053 29.8413,88.8053 26.5,99.5C 23.8284,100.503 21.1617,101.503 18.5,102.5C 15.4753,101.571 12.6419,100.238 10,98.5C 9.04502,92.9691 10.545,88.3024 14.5,84.5 Z M 16.5,88.5 C 24.5619,90.3247 25.3952,93.658 19,98.5C 12.8836,96.682 12.0503,93.3487 16.5,88.5 Z"/></g>
<g><path style="opacity:0.813" fill="#fefffe" d="M 121.5,84.5 C 123.388,86.9878 124.055,89.9878 123.5,93.5C 124.675,93.281 125.675,93.6143 126.5,94.5C 123.833,99.8333 121.167,99.8333 118.5,94.5C 119.325,93.6143 120.325,93.281 121.5,93.5C 121.5,90.5 121.5,87.5 121.5,84.5 Z"/></g>
<g><path style="opacity:1" fill="#a9abac" d="M 429.5,86.5 C 430.492,86.3284 431.158,86.6618 431.5,87.5C 433.277,88.6005 435.277,89.4338 437.5,90C 429.5,90.6667 421.5,90.6667 413.5,90C 418.871,88.362 424.204,87.1953 429.5,86.5 Z"/></g>
<g><path style="opacity:0.986" fill="#fefffe" d="M 114.5,89.5 C 115.978,89.238 117.311,89.5713 118.5,90.5C 116.711,93.5561 116.044,96.8894 116.5,100.5C 120.5,100.5 124.5,100.5 128.5,100.5C 128.956,96.8894 128.289,93.5561 126.5,90.5C 127.689,89.5713 129.022,89.238 130.5,89.5C 130.5,93.8333 130.5,98.1667 130.5,102.5C 125.167,102.5 119.833,102.5 114.5,102.5C 114.5,98.1667 114.5,93.8333 114.5,89.5 Z"/></g>
<g><path style="opacity:1" fill="#636466" d="M 429.5,86.5 C 424.204,87.1953 418.871,88.362 413.5,90C 421.5,90.6667 429.5,90.6667 437.5,90C 435.277,89.4338 433.277,88.6005 431.5,87.5C 435.673,87.6667 439.34,89 442.5,91.5C 432.008,92.6588 421.341,92.8255 410.5,92C 411.056,91.6174 411.389,91.1174 411.5,90.5C 411.5,90.1667 411.5,89.8333 411.5,89.5C 417.195,86.9486 423.195,85.9486 429.5,86.5 Z"/></g>
<g><path style="opacity:1" fill="#323133" d="M 411.5,90.5 C 411.389,91.1174 411.056,91.6174 410.5,92C 421.341,92.8255 432.008,92.6588 442.5,91.5C 444.153,91.6596 445.486,92.3263 446.5,93.5C 433.402,94.821 420.402,94.821 407.5,93.5C 408.262,91.7376 409.596,90.7376 411.5,90.5 Z"/></g>
<g><path style="opacity:1" fill="#090909" d="M 407.5,93.5 C 420.402,94.821 433.402,94.821 446.5,93.5C 452.506,96.1729 456.84,100.506 459.5,106.5C 459.66,108.199 459.494,109.866 459,111.5C 452.086,101.465 442.586,97.6317 430.5,100C 425.081,104.376 419.081,107.71 412.5,110C 403.612,111.779 400.112,108.279 402,99.5C 403.331,97.0038 405.164,95.0038 407.5,93.5 Z"/></g>
<g><path style="opacity:1" fill="#f9f9f9" d="M 411.5,89.5 C 411.5,89.8333 411.5,90.1667 411.5,90.5C 409.596,90.7376 408.262,91.7376 407.5,93.5C 405.164,95.0038 403.331,97.0038 402,99.5C 400.112,108.279 403.612,111.779 412.5,110C 419.081,107.71 425.081,104.376 430.5,100C 442.586,97.6317 452.086,101.465 459,111.5C 459.494,109.866 459.66,108.199 459.5,106.5C 459.5,105.5 459.5,104.5 459.5,103.5C 461.167,103.5 462.833,103.5 464.5,103.5C 464.5,128.167 464.5,152.833 464.5,177.5C 464.5,187.167 464.5,196.833 464.5,206.5C 416.167,206.5 367.833,206.5 319.5,206.5C 319.5,180.5 319.5,154.5 319.5,128.5C 320.791,128.737 321.791,128.404 322.5,127.5C 333.266,124.965 343.599,121.132 353.5,116C 362.502,115.953 371.502,115.953 380.5,116C 383.526,113.702 384.192,110.869 382.5,107.5C 380.97,105.654 378.97,104.654 376.5,104.5C 370.319,101.045 363.986,100.711 357.5,103.5C 354.088,104.042 351.088,105.375 348.5,107.5C 347.078,107.709 345.745,108.209 344.5,109C 337.138,116.011 328.805,121.511 319.5,125.5C 319.5,114.5 319.5,103.5 319.5,92.5C 348.594,93.1797 377.594,91.8464 406.5,88.5C 408.369,88.5068 410.036,88.8401 411.5,89.5 Z"/></g>
<g><path style="opacity:1" fill="#959697" d="M 376.5,104.5 C 376.918,105.222 377.584,105.722 378.5,106C 370.167,106.667 361.833,106.667 353.5,106C 355.066,105.392 356.4,104.558 357.5,103.5C 363.986,100.711 370.319,101.045 376.5,104.5 Z"/></g>
<g><path style="opacity:1" fill="#535355" d="M 357.5,103.5 C 356.4,104.558 355.066,105.392 353.5,106C 361.833,106.667 370.167,106.667 378.5,106C 377.584,105.722 376.918,105.222 376.5,104.5C 378.97,104.654 380.97,105.654 382.5,107.5C 376.741,108.789 370.741,109.456 364.5,109.5C 358.833,109.333 353.167,109.167 347.5,109C 348.056,108.617 348.389,108.117 348.5,107.5C 351.088,105.375 354.088,104.042 357.5,103.5 Z"/></g>
<g><path style="opacity:1" fill="#757678" d="M 481.5,142.5 C 481.5,148.167 481.5,153.833 481.5,159.5C 480.674,154.684 480.174,149.684 480,144.5C 475.298,139.63 470.465,134.963 465.5,130.5C 465.334,125.489 465.501,120.489 466,115.5C 470.667,120.167 475.333,124.833 480,129.5C 480.175,134.019 480.675,138.353 481.5,142.5 Z"/></g>
<g><path style="opacity:1" fill="#fbfbfb" d="M 459.5,135.5 C 459.595,137.786 460.262,139.786 461.5,141.5C 462.669,149.179 462.669,156.846 461.5,164.5C 460.326,165.514 459.66,166.847 459.5,168.5C 458.094,168.973 457.427,169.973 457.5,171.5C 456.577,172.303 455.577,172.47 454.5,172C 450.667,168.167 446.833,164.333 443,160.5C 442.809,158.292 442.309,156.292 441.5,154.5C 440.473,148.277 438.973,142.277 437,136.5C 442.758,133.705 448.592,131.038 454.5,128.5C 456.422,130.687 458.088,133.02 459.5,135.5 Z"/></g>
<g><path style="opacity:1" fill="#090909" d="M 459.5,135.5 C 458.088,133.02 456.422,130.687 454.5,128.5C 448.592,131.038 442.758,133.705 437,136.5C 438.973,142.277 440.473,148.277 441.5,154.5C 442.069,159.777 441.235,164.777 439,169.5C 436.508,171.497 433.675,172.497 430.5,172.5C 427.763,172.599 425.096,172.265 422.5,171.5C 417.874,168.542 413.874,164.876 410.5,160.5C 409.545,158.254 408.878,155.921 408.5,153.5C 409.222,153.918 409.722,154.584 410,155.5C 410.499,150.845 410.666,146.179 410.5,141.5C 409.167,141.5 407.833,141.5 406.5,141.5C 406.737,142.791 406.404,143.791 405.5,144.5C 405.5,143.167 405.5,141.833 405.5,140.5C 404.167,140.5 402.833,140.5 401.5,140.5C 400.71,139.599 399.71,138.932 398.5,138.5C 418.6,138.983 437.934,134.649 456.5,125.5C 457.3,128.557 458.3,131.891 459.5,135.5 Z"/></g>
<g><path style="opacity:1" fill="#070707" d="M 381.5,139.5 C 382.167,139.5 382.5,139.833 382.5,140.5C 380.585,140.216 378.919,140.549 377.5,141.5C 376.167,141.5 374.833,141.5 373.5,141.5C 373.181,146.363 373.514,151.03 374.5,155.5C 372.216,165.492 365.883,169.825 355.5,168.5C 352.766,167.295 350.099,165.795 347.5,164C 345.996,161.486 344.662,158.986 343.5,156.5C 343.39,150.612 344.39,144.946 346.5,139.5C 338.038,137.957 330.038,135.124 322.5,131C 331.95,133.778 341.617,136.112 351.5,138C 361.455,139.295 371.455,139.795 381.5,139.5 Z"/></g>
<g><path style="opacity:1" fill="#6f6f6f" d="M 459.5,135.5 C 461.074,137.102 461.741,139.102 461.5,141.5C 460.262,139.786 459.595,137.786 459.5,135.5 Z"/></g>
<g><path style="opacity:1" fill="#666767" d="M 381.5,139.5 C 385.908,138.373 386.908,138.373 384.5,139.5C 384.871,147.285 383.538,154.618 380.5,161.5C 381.684,155.545 382.684,149.545 383.5,143.5C 383.48,142.274 383.147,141.274 382.5,140.5C 382.5,139.833 382.167,139.5 381.5,139.5 Z"/></g>
<g><path style="opacity:1" fill="#6e6f70" d="M 377.5,141.5 C 377.755,146.568 376.755,151.234 374.5,155.5C 373.514,151.03 373.181,146.363 373.5,141.5C 374.833,141.5 376.167,141.5 377.5,141.5 Z"/></g>
<g><path style="opacity:1" fill="#666769" d="M 408.5,153.5 C 407.054,150.746 406.054,147.746 405.5,144.5C 406.404,143.791 406.737,142.791 406.5,141.5C 407.833,141.5 409.167,141.5 410.5,141.5C 410.666,146.179 410.499,150.845 410,155.5C 409.722,154.584 409.222,153.918 408.5,153.5 Z"/></g>
<g><path style="opacity:1" fill="#dbdcdd" d="M 325.5,139.5 C 330.737,146.243 336.571,152.577 343,158.5C 343.464,157.906 343.631,157.239 343.5,156.5C 344.662,158.986 345.996,161.486 347.5,164C 350.099,165.795 352.766,167.295 355.5,168.5C 354.761,168.369 354.094,168.536 353.5,169C 356.703,172.371 360.036,175.538 363.5,178.5C 361.485,179.924 359.152,180.59 356.5,180.5C 345.869,169.368 335.035,158.368 324,147.5C 323.536,146.906 323.369,146.239 323.5,145.5C 323.595,143.214 324.262,141.214 325.5,139.5 Z"/></g>
<g><path style="opacity:1" fill="#666769" d="M 465.5,130.5 C 470.465,134.963 475.298,139.63 480,144.5C 480.174,149.684 480.674,154.684 481.5,159.5C 481.5,163.833 481.5,168.167 481.5,172.5C 480.677,169.023 480.177,165.356 480,161.5C 475.663,155.997 470.83,150.997 465.5,146.5C 465.5,141.167 465.5,135.833 465.5,130.5 Z"/></g>
<g><path style="opacity:0.653" fill="#fefffe" d="M 118.5,150.5 C 128.659,149.158 132.826,153.491 131,163.5C 128.103,168.155 123.937,169.655 118.5,168C 113.845,165.103 112.345,160.937 114,155.5C 115.025,153.313 116.525,151.646 118.5,150.5 Z M 121.5,152.5 C 128.228,153.538 130.394,157.205 128,163.5C 122.158,167.72 117.991,166.387 115.5,159.5C 116.148,155.862 118.148,153.529 121.5,152.5 Z"/></g>
<g><path style="opacity:1" fill="#6c6c6d" d="M 461.5,141.5 C 463.048,145.034 463.714,148.867 463.5,153C 463.714,157.133 463.048,160.966 461.5,164.5C 462.669,156.846 462.669,149.179 461.5,141.5 Z"/></g>
<g><path style="opacity:1" fill="#babcbd" d="M 401.5,140.5 C 402.833,140.5 404.167,140.5 405.5,140.5C 405.5,141.833 405.5,143.167 405.5,144.5C 406.054,147.746 407.054,150.746 408.5,153.5C 408.878,155.921 409.545,158.254 410.5,160.5C 410.565,160.938 410.399,161.272 410,161.5C 401.802,156.587 398.968,149.587 401.5,140.5 Z"/></g>
<g><path style="opacity:0.551" fill="#fefffe" d="M 121.5,154.5 C 124.674,154.952 125.007,155.952 122.5,157.5C 120.481,156.867 120.147,155.867 121.5,154.5 Z"/></g>
<g><path style="opacity:0.904" fill="#fefffe" d="M 121.5,158.5 C 122.693,158.97 123.36,159.97 123.5,161.5C 123.167,162.5 122.833,163.5 122.5,164.5C 121.534,162.604 121.201,160.604 121.5,158.5 Z"/></g>
<g><path style="opacity:1" fill="#9a9c9d" d="M 322.5,150.5 C 322.491,152.308 322.991,153.975 324,155.5C 325.713,156.878 327.047,158.545 328,160.5C 334.762,166.756 340.929,173.423 346.5,180.5C 343.484,179.657 340.817,178.157 338.5,176C 333.255,170.277 327.922,164.777 322.5,159.5C 321.197,156.355 321.197,153.355 322.5,150.5 Z"/></g>
<g><path style="opacity:1" fill="#c2c4c5" d="M 323.5,145.5 C 323.369,146.239 323.536,146.906 324,147.5C 335.035,158.368 345.869,169.368 356.5,180.5C 353.167,180.5 349.833,180.5 346.5,180.5C 340.929,173.423 334.762,166.756 328,160.5C 327.047,158.545 325.713,156.878 324,155.5C 322.991,153.975 322.491,152.308 322.5,150.5C 322.216,148.585 322.549,146.919 323.5,145.5 Z"/></g>
<g><path style="opacity:1" fill="#e5e5e6" d="M 441.5,154.5 C 442.309,156.292 442.809,158.292 443,160.5C 446.833,164.333 450.667,168.167 454.5,172C 455.577,172.47 456.577,172.303 457.5,171.5C 457.5,173.5 456.5,174.5 454.5,174.5C 452.973,174.427 451.973,175.094 451.5,176.5C 448.515,177.326 445.849,178.659 443.5,180.5C 437.705,180.401 433.372,177.734 430.5,172.5C 433.675,172.497 436.508,171.497 439,169.5C 441.235,164.777 442.069,159.777 441.5,154.5 Z"/></g>
<g><path style="opacity:1" fill="#19aeea" d="M 13.5,152.5 C 24.8598,151.71 28.1931,156.543 23.5,167C 12.9641,170.997 8.46412,167.497 10,156.5C 10.6897,154.65 11.8564,153.316 13.5,152.5 Z"/></g>
<g><path style="opacity:1" fill="#6f7070" d="M 380.5,161.5 C 380.206,164.754 378.873,167.421 376.5,169.5C 377.326,166.515 378.659,163.849 380.5,161.5 Z"/></g>
<g><path style="opacity:1" fill="#8d8f90" d="M 398.5,138.5 C 399.71,138.932 400.71,139.599 401.5,140.5C 398.968,149.587 401.802,156.587 410,161.5C 410.399,161.272 410.565,160.938 410.5,160.5C 413.874,164.876 417.874,168.542 422.5,171.5C 421.535,172.721 421.702,174.054 423,175.5C 425.454,177.441 427.287,179.775 428.5,182.5C 421.841,178.686 416.174,173.519 411.5,167C 410.207,166.51 408.873,166.343 407.5,166.5C 406.624,166.631 405.957,166.298 405.5,165.5C 404.143,162.399 402.81,159.399 401.5,156.5C 399.656,150.767 398.656,144.767 398.5,138.5 Z"/></g>
<g><path style="opacity:1" fill="#707070" d="M 461.5,164.5 C 461.771,166.38 461.104,167.713 459.5,168.5C 459.66,166.847 460.326,165.514 461.5,164.5 Z"/></g>
<g><path style="opacity:1" fill="#505052" d="M 465.5,146.5 C 470.83,150.997 475.663,155.997 480,161.5C 480.177,165.356 480.677,169.023 481.5,172.5C 481.5,182.5 481.5,192.5 481.5,202.5C 480.698,201.048 480.198,199.382 480,197.5C 475.333,192.833 470.667,188.167 466,183.5C 465.501,187.821 465.334,192.154 465.5,196.5C 465.5,213.833 465.5,231.167 465.5,248.5C 465.5,249.167 465.167,249.5 464.5,249.5C 464.5,247.167 464.5,244.833 464.5,242.5C 464.5,239.167 464.5,235.833 464.5,232.5C 464.5,229.167 464.5,225.833 464.5,222.5C 464.5,217.167 464.5,211.833 464.5,206.5C 464.5,196.833 464.5,187.167 464.5,177.5C 465.494,167.347 465.828,157.014 465.5,146.5 Z"/></g>
<g><path style="opacity:1" fill="#434344" d="M 321.5,161.5 C 326.842,168.489 332.508,174.489 338.5,179.5C 328.701,177.368 323.034,171.368 321.5,161.5 Z"/></g>
<g><path style="opacity:1" fill="#f2f2f2" d="M 382.5,140.5 C 383.147,141.274 383.48,142.274 383.5,143.5C 382.684,149.545 381.684,155.545 380.5,161.5C 378.659,163.849 377.326,166.515 376.5,169.5C 373.141,172.529 369.808,175.529 366.5,178.5C 365.5,178.5 364.5,178.5 363.5,178.5C 360.036,175.538 356.703,172.371 353.5,169C 354.094,168.536 354.761,168.369 355.5,168.5C 365.883,169.825 372.216,165.492 374.5,155.5C 376.755,151.234 377.755,146.568 377.5,141.5C 378.919,140.549 380.585,140.216 382.5,140.5 Z"/></g>
<g><path style="opacity:1" fill="#414143" d="M 401.5,156.5 C 402.81,159.399 404.143,162.399 405.5,165.5C 405.957,166.298 406.624,166.631 407.5,166.5C 412.18,172.468 416.847,177.802 421.5,182.5C 412.178,179.343 406.011,173.01 403,163.5C 402.023,161.26 401.523,158.927 401.5,156.5 Z"/></g>
<g><path style="opacity:1" fill="#69696b" d="M 407.5,166.5 C 408.873,166.343 410.207,166.51 411.5,167C 416.174,173.519 421.841,178.686 428.5,182.5C 432.519,182.354 436.519,182.021 440.5,181.5C 436.946,182.984 433.112,183.651 429,183.5C 426.31,183.497 423.81,183.164 421.5,182.5C 416.847,177.802 412.18,172.468 407.5,166.5 Z"/></g>
<g><path style="opacity:1" fill="#676868" d="M 459.5,168.5 C 459.573,170.027 458.906,171.027 457.5,171.5C 457.427,169.973 458.094,168.973 459.5,168.5 Z"/></g>
<g><path style="opacity:1" fill="#6c6c6c" d="M 376.5,169.5 C 374.438,173.895 371.104,176.895 366.5,178.5C 369.808,175.529 373.141,172.529 376.5,169.5 Z"/></g>
<g><path style="opacity:1" fill="#b6b8b9" d="M 422.5,171.5 C 425.096,172.265 427.763,172.599 430.5,172.5C 433.372,177.734 437.705,180.401 443.5,180.5C 442.791,181.404 441.791,181.737 440.5,181.5C 436.519,182.021 432.519,182.354 428.5,182.5C 427.287,179.775 425.454,177.441 423,175.5C 421.702,174.054 421.535,172.721 422.5,171.5 Z"/></g>
<g><path style="opacity:1" fill="#656565" d="M 454.5,174.5 C 454.027,175.906 453.027,176.573 451.5,176.5C 451.973,175.094 452.973,174.427 454.5,174.5 Z"/></g>
<g><path style="opacity:1" fill="#6a6b6b" d="M 451.5,176.5 C 449.421,178.873 446.754,180.206 443.5,180.5C 445.849,178.659 448.515,177.326 451.5,176.5 Z"/></g>
<g><path style="opacity:1" fill="#6e6f70" d="M 325.5,139.5 C 324.262,141.214 323.595,143.214 323.5,145.5C 322.549,146.919 322.216,148.585 322.5,150.5C 321.197,153.355 321.197,156.355 322.5,159.5C 327.922,164.777 333.255,170.277 338.5,176C 340.817,178.157 343.484,179.657 346.5,180.5C 349.833,180.5 353.167,180.5 356.5,180.5C 359.152,180.59 361.485,179.924 363.5,178.5C 364.5,178.5 365.5,178.5 366.5,178.5C 357.338,183.406 348.005,183.74 338.5,179.5C 332.508,174.489 326.842,168.489 321.5,161.5C 319.644,152.912 320.811,144.579 325,136.5C 325.483,137.448 325.649,138.448 325.5,139.5 Z"/></g>
<g><path style="opacity:1" fill="#282729" d="M 481.5,202.5 C 481.5,205.167 481.5,207.833 481.5,210.5C 475.89,206.228 470.557,201.562 465.5,196.5C 465.334,192.154 465.501,187.821 466,183.5C 470.667,188.167 475.333,192.833 480,197.5C 480.198,199.382 480.698,201.048 481.5,202.5 Z"/></g>
<g><path style="opacity:0.64" fill="#121211" d="M 282.5,235.5 C 283.434,236.568 283.768,237.901 283.5,239.5C 278.986,238.579 274.652,237.079 270.5,235C 262.288,232.541 256.788,235.375 254,243.5C 251.967,248.295 251.134,253.295 251.5,258.5C 240.547,259.337 239.881,259.337 249.5,258.5C 247.742,248.722 246.075,239.056 244.5,229.5C 244.331,222.813 243.831,216.146 243,209.5C 240.365,203.132 236.198,201.965 230.5,206C 229.333,207.167 228.167,208.333 227,209.5C 225.603,214.708 225.103,220.041 225.5,225.5C 225.737,226.791 225.404,227.791 224.5,228.5C 226.32,217.822 221.986,213.322 211.5,215C 209.622,216.543 208.122,218.376 207,220.5C 206.27,227.548 206.603,234.548 208,241.5C 210.541,250.289 213.374,258.955 216.5,267.5C 216.833,268.167 217.167,268.833 217.5,269.5C 216.833,269.833 216.167,270.167 215.5,270.5C 212.932,261.363 208.765,253.03 203,245.5C 201.38,243.274 199.214,241.94 196.5,241.5C 194.575,241.59 193.408,242.59 193,244.5C 192.509,261.856 197.342,277.523 207.5,291.5C 209.835,297.514 213.169,302.848 217.5,307.5C 220.046,312.719 223.713,317.052 228.5,320.5C 234.293,326.097 240.96,328.097 248.5,326.5C 249.93,326.579 251.264,326.246 252.5,325.5C 252.833,325.833 253.167,326.167 253.5,326.5C 252.624,327.251 251.624,327.751 250.5,328C 246.848,328.499 243.182,328.665 239.5,328.5C 231.124,326.219 224.291,321.552 219,314.5C 207.139,299.116 198.139,282.116 192,263.5C 191.333,256.167 191.333,248.833 192,241.5C 194.604,238.835 197.437,238.335 200.5,240C 203.04,242.205 205.207,244.705 207,247.5C 205.413,241.534 204.58,235.367 204.5,229C 203.47,214.681 209.637,209.848 223,214.5C 225.483,204.37 231.65,200.537 241.5,203C 243.317,204.8 244.484,206.966 245,209.5C 245.79,222.614 247.457,235.614 250,248.5C 251.289,242.072 254.456,236.905 259.5,233C 261.5,232.5 263.5,232 265.5,231.5C 270.895,232.447 276.062,234.114 281,236.5C 281.765,236.43 282.265,236.097 282.5,235.5 Z"/></g>
<g><path style="opacity:1" fill="#f9f6e0" d="M 244.5,229.5 C 241.768,239.697 238.434,249.697 234.5,259.5C 232.671,256.659 231.171,252.992 230,248.5C 228.299,240.727 226.799,233.061 225.5,225.5C 225.103,220.041 225.603,214.708 227,209.5C 228.167,208.333 229.333,207.167 230.5,206C 236.198,201.965 240.365,203.132 243,209.5C 243.831,216.146 244.331,222.813 244.5,229.5 Z"/></g>
<g><path style="opacity:0.983" fill="#060606" d="M 465.5,196.5 C 470.557,201.562 475.89,206.228 481.5,210.5C 481.5,220.167 481.5,229.833 481.5,239.5C 481.167,240.167 480.833,240.833 480.5,241.5C 479.833,241.5 479.5,241.833 479.5,242.5C 476.794,242.688 474.461,243.688 472.5,245.5C 471.29,245.932 470.29,246.599 469.5,247.5C 468.292,248.234 466.959,248.567 465.5,248.5C 465.5,231.167 465.5,213.833 465.5,196.5 Z"/></g>
<g><path style="opacity:1" fill="#ececed" d="M 319.5,206.5 C 367.833,206.5 416.167,206.5 464.5,206.5C 464.5,211.833 464.5,217.167 464.5,222.5C 416.167,222.5 367.833,222.5 319.5,222.5C 319.5,217.167 319.5,211.833 319.5,206.5 Z"/></g>
<g><path style="opacity:1" fill="#e1e1e2" d="M 322.5,127.5 C 321.791,128.404 320.791,128.737 319.5,128.5C 319.5,154.5 319.5,180.5 319.5,206.5C 319.5,211.833 319.5,217.167 319.5,222.5C 367.833,222.5 416.167,222.5 464.5,222.5C 464.5,225.833 464.5,229.167 464.5,232.5C 416.167,232.5 367.833,232.5 319.5,232.5C 319.806,229.615 319.473,226.948 318.5,224.5C 318.5,192.167 318.5,159.833 318.5,127.5C 319.833,127.5 321.167,127.5 322.5,127.5 Z"/></g>
<g><path style="opacity:0.614" fill="#121210" d="M 517.5,342.5 C 512.38,341.94 508.046,339.773 504.5,336C 504.833,335.833 505.167,335.667 505.5,335.5C 510.63,340.009 516.63,341.676 523.5,340.5C 528.883,339.266 533.883,337.266 538.5,334.5C 549.48,328.507 559.147,320.841 567.5,311.5C 575.272,304.559 581.772,296.559 587,287.5C 588.651,283.342 588.817,279.175 587.5,275C 578.765,276.042 571.765,280.209 566.5,287.5C 563.853,289.811 561.186,292.144 558.5,294.5C 556.389,293.395 555.055,291.729 554.5,289.5C 555.815,290.476 557.148,291.476 558.5,292.5C 569.205,282.283 577.372,270.283 583,256.5C 585.066,245.289 580.566,240.956 569.5,243.5C 568.662,243.158 568.328,242.492 568.5,241.5C 570.002,234.528 567.669,229.361 561.5,226C 556.07,225.586 552.737,228.086 551.5,233.5C 545.948,246.272 539.615,258.605 532.5,270.5C 531.662,270.158 531.328,269.492 531.5,268.5C 531.666,262.824 531.499,257.157 531,251.5C 529.285,248.283 526.785,245.95 523.5,244.5C 515.747,244.201 508.08,244.534 500.5,245.5C 499.662,245.158 499.328,244.492 499.5,243.5C 505.463,242.725 511.463,242.058 517.5,241.5C 530.914,242.6 536.414,249.933 534,263.5C 541.054,252.058 547.054,240.058 552,227.5C 557.636,221.991 562.969,222.324 568,228.5C 569.969,232.232 570.969,236.232 571,240.5C 582.646,239.487 587.312,244.821 585,256.5C 582.888,263.391 579.721,269.724 575.5,275.5C 575.667,275.833 575.833,276.167 576,276.5C 587.654,268.775 592.32,271.775 590,285.5C 588.444,290.28 586.111,294.613 583,298.5C 573.132,310.035 562.299,320.535 550.5,330C 544.123,334.189 537.456,337.855 530.5,341C 526.249,342.195 521.915,342.695 517.5,342.5 Z"/></g>
<g><path style="opacity:1" fill="#f9f7e7" d="M 224.5,228.5 C 226.209,239.629 228.543,250.629 231.5,261.5C 226.357,263.241 221.357,265.241 216.5,267.5C 213.374,258.955 210.541,250.289 208,241.5C 206.603,234.548 206.27,227.548 207,220.5C 208.122,218.376 209.622,216.543 211.5,215C 221.986,213.322 226.32,217.822 224.5,228.5 Z"/></g>
<g><path style="opacity:1" fill="#f9f5e1" d="M 568.5,241.5 C 564.431,251.566 559.098,260.899 552.5,269.5C 552.828,257.322 552.495,245.322 551.5,233.5C 552.737,228.086 556.07,225.586 561.5,226C 567.669,229.361 570.002,234.528 568.5,241.5 Z"/></g>
<g><path style="opacity:1" fill="#f8f3d7" d="M 551.5,233.5 C 552.495,245.322 552.828,257.322 552.5,269.5C 550.933,273.562 548.433,276.896 545,279.5C 541.047,277.107 536.88,275.107 532.5,273.5C 531.438,272.575 531.438,271.575 532.5,270.5C 539.615,258.605 545.948,246.272 551.5,233.5 Z"/></g>
<g><path style="opacity:1" fill="#fbf2c2" d="M 283.5,239.5 C 284.833,243.833 284.833,248.167 283.5,252.5C 279.15,253.689 274.817,253.689 270.5,252.5C 267.606,255.97 266.773,259.97 268,264.5C 268.92,268.263 270.42,271.763 272.5,275C 262.721,278.548 255.387,284.882 250.5,294C 250.833,294.167 251.167,294.333 251.5,294.5C 254.48,289.854 258.147,285.854 262.5,282.5C 257.999,297.168 252.999,311.668 247.5,326C 247.728,326.399 248.062,326.565 248.5,326.5C 240.96,328.097 234.293,326.097 228.5,320.5C 234.969,300.426 241.636,280.426 248.5,260.5C 250.924,260.808 253.257,260.474 255.5,259.5C 254.311,258.571 252.978,258.238 251.5,258.5C 251.134,253.295 251.967,248.295 254,243.5C 256.788,235.375 262.288,232.541 270.5,235C 274.652,237.079 278.986,238.579 283.5,239.5 Z"/></g>
<g><path style="opacity:1" fill="#d2d4d5" d="M 319.5,232.5 C 367.833,232.5 416.167,232.5 464.5,232.5C 464.5,235.833 464.5,239.167 464.5,242.5C 416.167,242.5 367.833,242.5 319.5,242.5C 319.5,239.167 319.5,235.833 319.5,232.5 Z"/></g>
<g><path style="opacity:1" fill="#9f292b" d="M 498.5,234.5 C 498.825,241.687 498.491,248.687 497.5,255.5C 493.991,250.134 489.491,248.8 484,251.5C 482.875,260.605 481.708,269.605 480.5,278.5C 480.5,266.167 480.5,253.833 480.5,241.5C 480.833,240.833 481.167,240.167 481.5,239.5C 486.905,236.966 492.571,235.299 498.5,234.5 Z"/></g>
<g><path style="opacity:1" fill="#faf1be" d="M 523.5,244.5 C 523.5,276.5 523.5,308.5 523.5,340.5C 516.63,341.676 510.63,340.009 505.5,335.5C 505.167,335.667 504.833,335.833 504.5,336C 508.046,339.773 512.38,341.94 517.5,342.5C 516.5,343.5 515.5,344.5 514.5,345.5C 510.384,349.057 506.05,349.391 501.5,346.5C 503.489,325.86 504.155,304.86 503.5,283.5C 511.061,289.279 515.561,296.945 517,306.5C 517.419,300.307 515.753,294.641 512,289.5C 509.317,286.984 506.817,284.317 504.5,281.5C 509.334,276.849 512.668,271.349 514.5,265C 514.441,263.564 514.108,262.231 513.5,261C 508.427,260.794 504.094,258.961 500.5,255.5C 499.167,252.167 499.167,248.833 500.5,245.5C 508.08,244.534 515.747,244.201 523.5,244.5 Z"/></g>
<g><path style="opacity:1" fill="#834d57" d="M 285.5,234.5 C 285.5,240.833 285.5,247.167 285.5,253.5C 284.833,254.833 283.833,255.833 282.5,256.5C 282.5,256.167 282.5,255.833 282.5,255.5C 283.11,254.609 283.443,253.609 283.5,252.5C 284.833,248.167 284.833,243.833 283.5,239.5C 283.768,237.901 283.434,236.568 282.5,235.5C 282.452,234.493 283.452,234.16 285.5,234.5 Z"/></g>
<g><path style="opacity:1" fill="#c1c3c4" d="M 318.5,224.5 C 319.473,226.948 319.806,229.615 319.5,232.5C 319.5,235.833 319.5,239.167 319.5,242.5C 367.833,242.5 416.167,242.5 464.5,242.5C 464.5,244.833 464.5,247.167 464.5,249.5C 460.531,251.484 456.531,253.484 452.5,255.5C 451.508,255.328 450.842,255.662 450.5,256.5C 449.508,256.328 448.842,256.662 448.5,257.5C 447.833,257.5 447.167,257.5 446.5,257.5C 410.167,257.5 373.833,257.5 337.5,257.5C 336.833,257.5 336.167,257.5 335.5,257.5C 335.158,256.662 334.492,256.328 333.5,256.5C 332.833,256.167 332.167,255.833 331.5,255.5C 326.893,253.532 322.559,251.199 318.5,248.5C 318.5,240.5 318.5,232.5 318.5,224.5 Z"/></g>
<g><path style="opacity:1" fill="#faf7e7" d="M 554.5,289.5 C 552.737,285.901 550.07,283.068 546.5,281C 555.822,269.525 563.488,257.025 569.5,243.5C 580.566,240.956 585.066,245.289 583,256.5C 577.372,270.283 569.205,282.283 558.5,292.5C 557.148,291.476 555.815,290.476 554.5,289.5 Z"/></g>
<g><path style="opacity:1" fill="#f7eaa0" d="M 490.5,251.5 C 490.831,280.671 490.498,309.671 489.5,338.5C 482.11,334.776 476.776,329.109 473.5,321.5C 473.5,319.5 473.5,317.5 473.5,315.5C 474.5,313.833 475.833,312.5 477.5,311.5C 489.76,326.31 490.26,325.976 479,310.5C 476.903,306.779 475.736,302.779 475.5,298.5C 477.907,292.666 480.074,286.666 482,280.5C 483.086,271.87 483.753,263.203 484,254.5C 485.287,251.855 487.453,250.855 490.5,251.5 Z"/></g>
<g><path style="opacity:1" fill="#f8eba3" d="M 288.5,311.5 C 289.11,312.391 289.443,313.391 289.5,314.5C 289.652,322.869 285.652,328.369 277.5,331C 271.283,333.304 264.949,335.137 258.5,336.5C 265.374,316.545 272.041,296.545 278.5,276.5C 278.271,265.787 282.604,257.62 291.5,252C 298.505,250.676 301.005,253.51 299,260.5C 296.934,265.363 295.268,270.363 294,275.5C 293.667,284.5 293.333,293.5 293,302.5C 291.6,305.902 289.433,308.736 286.5,311C 282.668,313.75 278.668,316.25 274.5,318.5C 279.423,317.373 284.089,315.04 288.5,311.5 Z"/></g>
<g><path style="opacity:1" fill="#fbefac" d="M 490.5,251.5 C 494.908,253.414 497.741,256.748 499,261.5C 499.72,267.361 499.554,273.194 498.5,279C 499.302,281.41 500.969,282.91 503.5,283.5C 504.155,304.86 503.489,325.86 501.5,346.5C 496.803,344.822 492.803,342.156 489.5,338.5C 490.498,309.671 490.831,280.671 490.5,251.5 Z"/></g>
<g><path style="opacity:1" fill="#7a4b52" d="M 498.5,234.5 C 499.873,234.343 501.207,234.51 502.5,235C 501.063,237.689 500.063,240.523 499.5,243.5C 499.328,244.492 499.662,245.158 500.5,245.5C 499.167,248.833 499.167,252.167 500.5,255.5C 500.433,256.959 500.766,258.292 501.5,259.5C 501.5,260.167 501.167,260.5 500.5,260.5C 499.263,259.035 498.263,257.368 497.5,255.5C 498.491,248.687 498.825,241.687 498.5,234.5 Z"/></g>
<g><path style="opacity:1" fill="#a13031" d="M 314.5,247.5 C 315.708,248.234 317.041,248.567 318.5,248.5C 322.559,251.199 326.893,253.532 331.5,255.5C 331.5,266.167 331.5,276.833 331.5,287.5C 325.5,287.5 319.5,287.5 313.5,287.5C 313.171,273.99 313.504,260.656 314.5,247.5 Z"/></g>
<g><path style="opacity:1" fill="#adafb0" d="M 337.5,257.5 C 373.833,257.5 410.167,257.5 446.5,257.5C 446.167,258.5 445.5,259.167 444.5,259.5C 442.847,259.66 441.514,260.326 440.5,261.5C 436.942,263.112 433.275,264.445 429.5,265.5C 404.167,265.5 378.833,265.5 353.5,265.5C 350.167,264.167 346.833,262.833 343.5,261.5C 341.364,260.347 339.364,259.014 337.5,257.5 Z"/></g>
<g><path style="opacity:1" fill="#f9f8eb" d="M 215.5,270.5 C 212.452,277.305 209.785,284.305 207.5,291.5C 197.342,277.523 192.509,261.856 193,244.5C 193.408,242.59 194.575,241.59 196.5,241.5C 199.214,241.94 201.38,243.274 203,245.5C 208.765,253.03 212.932,261.363 215.5,270.5 Z"/></g>
<g><path style="opacity:1" fill="#f9f3d2" d="M 244.5,229.5 C 246.075,239.056 247.742,248.722 249.5,258.5C 239.881,259.337 240.547,259.337 251.5,258.5C 252.978,258.238 254.311,258.571 255.5,259.5C 253.257,260.474 250.924,260.808 248.5,260.5C 241.636,280.426 234.969,300.426 228.5,320.5C 223.713,317.052 220.046,312.719 217.5,307.5C 223.226,292.656 228.559,277.656 233.5,262.5C 235.767,261.577 238.1,260.744 240.5,260C 238.527,259.505 236.527,259.338 234.5,259.5C 238.434,249.697 241.768,239.697 244.5,229.5 Z"/></g>
<g><path style="opacity:1" fill="#a22a2d" d="M 285.5,234.5 C 291.209,235.024 296.542,236.691 301.5,239.5C 302.167,240.167 302.833,240.833 303.5,241.5C 303.5,263.5 303.5,285.5 303.5,307.5C 300.287,307.19 297.287,307.523 294.5,308.5C 293.833,308.167 293.167,307.833 292.5,307.5C 294.265,304.113 295.265,300.446 295.5,296.5C 294.525,290.518 294.358,284.518 295,278.5C 296.772,271.186 298.939,264.019 301.5,257C 301.561,254.739 300.894,252.739 299.5,251C 294.444,249.911 289.778,250.744 285.5,253.5C 285.5,247.167 285.5,240.833 285.5,234.5 Z"/></g>
<g><path style="opacity:1" fill="#80515f" d="M 333.5,256.5 C 334.492,256.328 335.158,256.662 335.5,257.5C 334.503,277.993 334.169,298.66 334.5,319.5C 334.167,319.5 333.833,319.5 333.5,319.5C 333.5,298.5 333.5,277.5 333.5,256.5 Z"/></g>
<g><path style="opacity:1" fill="#90494e" d="M 448.5,257.5 C 448.842,256.662 449.508,256.328 450.5,256.5C 451.497,277.327 451.831,298.327 451.5,319.5C 448.167,319.5 444.833,319.5 441.5,319.5C 441.5,315.5 441.5,311.5 441.5,307.5C 441.5,304.833 441.5,302.167 441.5,299.5C 441.5,299.167 441.5,298.833 441.5,298.5C 441.5,295.5 441.5,292.5 441.5,289.5C 441.5,288.833 441.5,288.167 441.5,287.5C 441.826,278.651 441.493,269.984 440.5,261.5C 441.514,260.326 442.847,259.66 444.5,259.5C 444.5,268.833 444.5,278.167 444.5,287.5C 446.167,287.5 447.833,287.5 449.5,287.5C 449.827,277.319 449.494,267.319 448.5,257.5 Z"/></g>
<g><path style="opacity:0.691" fill="#191713" d="M 497.5,255.5 C 498.263,257.368 499.263,259.035 500.5,260.5C 501.83,266.47 501.83,272.47 500.5,278.5C 500.808,279.308 501.308,279.975 502,280.5C 507.876,275.812 511.376,269.812 512.5,262.5C 508.429,262.88 504.762,261.88 501.5,259.5C 500.766,258.292 500.433,256.959 500.5,255.5C 504.094,258.961 508.427,260.794 513.5,261C 514.108,262.231 514.441,263.564 514.5,265C 512.668,271.349 509.334,276.849 504.5,281.5C 506.817,284.317 509.317,286.984 512,289.5C 515.753,294.641 517.419,300.307 517,306.5C 515.561,296.945 511.061,289.279 503.5,283.5C 500.969,282.91 499.302,281.41 498.5,279C 499.554,273.194 499.72,267.361 499,261.5C 497.741,256.748 494.908,253.414 490.5,251.5C 487.453,250.855 485.287,251.855 484,254.5C 483.753,263.203 483.086,271.87 482,280.5C 480.074,286.666 477.907,292.666 475.5,298.5C 475.736,302.779 476.903,306.779 479,310.5C 490.26,325.976 489.76,326.31 477.5,311.5C 474.691,305.828 473.858,299.828 475,293.5C 477.575,290.274 479.075,286.607 479.5,282.5C 480.434,281.432 480.768,280.099 480.5,278.5C 481.708,269.605 482.875,260.605 484,251.5C 489.491,248.8 493.991,250.134 497.5,255.5 Z M 501.5,259.5 C 504.762,261.88 508.429,262.88 512.5,262.5C 511.376,269.812 507.876,275.812 502,280.5C 501.308,279.975 500.808,279.308 500.5,278.5C 501.83,272.47 501.83,266.47 500.5,260.5C 501.167,260.5 501.5,260.167 501.5,259.5 Z"/></g>
<g><path style="opacity:1" fill="#343430" d="M 225.5,225.5 C 226.799,233.061 228.299,240.727 230,248.5C 231.171,252.992 232.671,256.659 234.5,259.5C 236.527,259.338 238.527,259.505 240.5,260C 238.1,260.744 235.767,261.577 233.5,262.5C 227.674,263.747 222.341,266.081 217.5,269.5C 217.167,268.833 216.833,268.167 216.5,267.5C 221.357,265.241 226.357,263.241 231.5,261.5C 228.543,250.629 226.209,239.629 224.5,228.5C 225.404,227.791 225.737,226.791 225.5,225.5 Z"/></g>
<g><path style="opacity:1" fill="#060405" d="M 353.5,265.5 C 378.833,265.5 404.167,265.5 429.5,265.5C 427.5,266.833 425.5,268.167 423.5,269.5C 422.508,269.328 421.842,269.662 421.5,270.5C 419.033,270.755 417.033,271.755 415.5,273.5C 414.209,273.263 413.209,273.596 412.5,274.5C 408.849,275.659 405.515,277.326 402.5,279.5C 395.465,274.227 388.465,274.227 381.5,279.5C 378.48,277.323 375.147,275.657 371.5,274.5C 370.791,273.596 369.791,273.263 368.5,273.5C 366.819,271.992 364.819,270.992 362.5,270.5C 362.158,269.662 361.492,269.328 360.5,269.5C 358.167,268.167 355.833,266.833 353.5,265.5 Z"/></g>
<g><path style="opacity:1" fill="#fbf7df" d="M 233.5,262.5 C 228.559,277.656 223.226,292.656 217.5,307.5C 213.169,302.848 209.835,297.514 207.5,291.5C 209.785,284.305 212.452,277.305 215.5,270.5C 216.167,270.167 216.833,269.833 217.5,269.5C 222.341,266.081 227.674,263.747 233.5,262.5 Z"/></g>
<g><path style="opacity:1" fill="#844e5a" d="M 303.5,241.5 C 304.167,241.5 304.5,241.833 304.5,242.5C 304.071,246.257 304.737,249.757 306.5,253C 305.572,253.388 304.905,254.055 304.5,255C 304.913,256.796 304.913,258.463 304.5,260C 305.167,260.333 305.833,260.667 306.5,261C 305.316,262.18 304.649,263.68 304.5,265.5C 305.101,271.176 305.768,276.842 306.5,282.5C 306.21,284.044 305.544,285.377 304.5,286.5C 305.167,287.167 305.833,287.833 306.5,288.5C 303.876,292.079 303.876,295.579 306.5,299C 304.959,301.677 303.959,304.51 303.5,307.5C 303.5,285.5 303.5,263.5 303.5,241.5 Z"/></g>
<g><path style="opacity:1" fill="#963436" d="M 304.5,242.5 C 307.022,243.011 309.355,244.011 311.5,245.5C 311.5,268.167 311.5,290.833 311.5,313.5C 309.143,313.663 306.81,313.497 304.5,313C 305.654,312.086 305.487,311.253 304,310.5C 303.51,311.793 303.343,313.127 303.5,314.5C 300.291,312.735 297.291,310.735 294.5,308.5C 297.287,307.523 300.287,307.19 303.5,307.5C 303.959,304.51 304.959,301.677 306.5,299C 303.876,295.579 303.876,292.079 306.5,288.5C 305.833,287.833 305.167,287.167 304.5,286.5C 305.544,285.377 306.21,284.044 306.5,282.5C 305.768,276.842 305.101,271.176 304.5,265.5C 304.649,263.68 305.316,262.18 306.5,261C 305.833,260.667 305.167,260.333 304.5,260C 304.913,258.463 304.913,256.796 304.5,255C 304.905,254.055 305.572,253.388 306.5,253C 304.737,249.757 304.071,246.257 304.5,242.5 Z"/></g>
<g><path style="opacity:1" fill="#933131" d="M 335.5,257.5 C 335.5,258.833 335.5,260.167 335.5,261.5C 336.833,261.5 338.167,261.5 339.5,261.5C 339.5,280.833 339.5,300.167 339.5,319.5C 337.833,319.5 336.167,319.5 334.5,319.5C 334.169,298.66 334.503,277.993 335.5,257.5 Z"/></g>
<g><path style="opacity:1" fill="#9e2c2e" d="M 343.5,261.5 C 346.833,262.833 350.167,264.167 353.5,265.5C 355.833,266.833 358.167,268.167 360.5,269.5C 360.5,275.5 360.5,281.5 360.5,287.5C 354.5,287.5 348.5,287.5 342.5,287.5C 342.174,278.651 342.507,269.984 343.5,261.5 Z"/></g>
<g><path style="opacity:1" fill="#9e2c2e" d="M 440.5,261.5 C 441.493,269.984 441.826,278.651 441.5,287.5C 435.5,287.5 429.5,287.5 423.5,287.5C 423.5,281.5 423.5,275.5 423.5,269.5C 425.5,268.167 427.5,266.833 429.5,265.5C 433.275,264.445 436.942,263.112 440.5,261.5 Z"/></g>
<g><path style="opacity:1" fill="#9f2f30" d="M 469.5,247.5 C 470.496,260.656 470.829,273.99 470.5,287.5C 464.5,287.5 458.5,287.5 452.5,287.5C 452.5,276.833 452.5,266.167 452.5,255.5C 456.531,253.484 460.531,251.484 464.5,249.5C 465.167,249.5 465.5,249.167 465.5,248.5C 466.959,248.567 468.292,248.234 469.5,247.5 Z"/></g>
<g><path style="opacity:1" fill="#7d4e5c" d="M 480.5,241.5 C 480.5,253.833 480.5,266.167 480.5,278.5C 480.768,280.099 480.434,281.432 479.5,282.5C 480.055,278.003 479.389,273.836 477.5,270C 479.456,261.099 480.122,251.932 479.5,242.5C 479.5,241.833 479.833,241.5 480.5,241.5 Z"/></g>
<g><path style="opacity:1" fill="#fbf4cd" d="M 523.5,244.5 C 526.785,245.95 529.285,248.283 531,251.5C 531.499,257.157 531.666,262.824 531.5,268.5C 530.942,270.593 529.609,272.093 527.5,273C 531.236,274.41 534.902,275.91 538.5,277.5C 538.5,296.5 538.5,315.5 538.5,334.5C 533.883,337.266 528.883,339.266 523.5,340.5C 523.5,308.5 523.5,276.5 523.5,244.5 Z"/></g>
<g><path style="opacity:1" fill="#f9f8f0" d="M 567.5,311.5 C 567.826,303.316 567.492,295.316 566.5,287.5C 571.765,280.209 578.765,276.042 587.5,275C 588.817,279.175 588.651,283.342 587,287.5C 581.772,296.559 575.272,304.559 567.5,311.5 Z"/></g>
<g><path style="opacity:1" fill="#faefb3" d="M 278.5,276.5 C 272.041,296.545 265.374,316.545 258.5,336.5C 253.195,338.072 248.028,337.738 243,335.5C 242.243,333.685 241.41,332.019 240.5,330.5C 240.167,329.833 239.833,329.167 239.5,328.5C 243.182,328.665 246.848,328.499 250.5,328C 251.624,327.751 252.624,327.251 253.5,326.5C 253.167,326.167 252.833,325.833 252.5,325.5C 251.264,326.246 249.93,326.579 248.5,326.5C 248.062,326.565 247.728,326.399 247.5,326C 252.999,311.668 257.999,297.168 262.5,282.5C 267.065,278.752 272.398,276.752 278.5,276.5 Z"/></g>
<g><path style="opacity:1" fill="#292825" d="M 568.5,241.5 C 568.328,242.492 568.662,243.158 569.5,243.5C 563.488,257.025 555.822,269.525 546.5,281C 550.07,283.068 552.737,285.901 554.5,289.5C 549.45,285.115 544.116,281.115 538.5,277.5C 534.902,275.91 531.236,274.41 527.5,273C 529.609,272.093 530.942,270.593 531.5,268.5C 531.328,269.492 531.662,270.158 532.5,270.5C 531.438,271.575 531.438,272.575 532.5,273.5C 536.88,275.107 541.047,277.107 545,279.5C 548.433,276.896 550.933,273.562 552.5,269.5C 559.098,260.899 564.431,251.566 568.5,241.5 Z"/></g>
<g><path style="opacity:1" fill="#933334" d="M 479.5,242.5 C 480.122,251.932 479.456,261.099 477.5,270C 479.389,273.836 480.055,278.003 479.5,282.5C 479.075,286.607 477.575,290.274 475,293.5C 473.858,299.828 474.691,305.828 477.5,311.5C 475.833,312.5 474.5,313.833 473.5,315.5C 472.502,292.339 472.169,269.006 472.5,245.5C 474.461,243.688 476.794,242.688 479.5,242.5 Z"/></g>
<g><path style="opacity:1" fill="#fbf6dc" d="M 538.5,277.5 C 544.116,281.115 549.45,285.115 554.5,289.5C 555.055,291.729 556.389,293.395 558.5,294.5C 561.186,292.144 563.853,289.811 566.5,287.5C 567.492,295.316 567.826,303.316 567.5,311.5C 559.147,320.841 549.48,328.507 538.5,334.5C 538.5,315.5 538.5,296.5 538.5,277.5 Z"/></g>
<g><path style="opacity:1" fill="#484749" d="M 402.5,279.5 C 403.594,281.865 404.261,284.365 404.5,287C 404.486,288.385 404.152,289.551 403.5,290.5C 402.081,289.549 400.415,289.216 398.5,289.5C 398.378,285.162 398.045,284.828 397.5,288.5C 393.833,288.5 390.167,288.5 386.5,288.5C 386.657,287.127 386.49,285.793 386,284.5C 385.505,286.473 385.338,288.473 385.5,290.5C 383.833,290.5 382.167,290.5 380.5,290.5C 379.848,289.551 379.514,288.385 379.5,287C 379.739,284.365 380.406,281.865 381.5,279.5C 388.465,274.227 395.465,274.227 402.5,279.5 Z"/></g>
<g><path style="opacity:1" fill="#973031" d="M 421.5,270.5 C 421.5,282.833 421.5,295.167 421.5,307.5C 419.5,307.5 417.5,307.5 415.5,307.5C 415.5,296.167 415.5,284.833 415.5,273.5C 417.033,271.755 419.033,270.755 421.5,270.5 Z"/></g>
<g><path style="opacity:1" fill="#922f2e" d="M 446.5,257.5 C 447.167,257.5 447.833,257.5 448.5,257.5C 449.494,267.319 449.827,277.319 449.5,287.5C 447.833,287.5 446.167,287.5 444.5,287.5C 444.5,278.167 444.5,268.833 444.5,259.5C 445.5,259.167 446.167,258.5 446.5,257.5 Z"/></g>
<g><path style="opacity:1" fill="#a75051" d="M 331.5,255.5 C 332.167,255.833 332.833,256.167 333.5,256.5C 333.5,277.5 333.5,298.5 333.5,319.5C 332.833,319.5 332.167,319.5 331.5,319.5C 331.5,309.5 331.5,299.5 331.5,289.5C 325.5,289.5 319.5,289.5 313.5,289.5C 313.5,288.833 313.5,288.167 313.5,287.5C 319.5,287.5 325.5,287.5 331.5,287.5C 331.5,276.833 331.5,266.167 331.5,255.5 Z"/></g>
<g><path style="opacity:1" fill="#bc625d" d="M 342.5,287.5 C 348.5,287.5 354.5,287.5 360.5,287.5C 360.5,288.167 360.5,288.833 360.5,289.5C 357.5,289.5 354.5,289.5 351.5,289.5C 351.167,289.5 350.833,289.5 350.5,289.5C 347.833,289.5 345.167,289.5 342.5,289.5C 342.5,288.833 342.5,288.167 342.5,287.5 Z"/></g>
<g><path style="opacity:1" fill="#be625e" d="M 423.5,287.5 C 429.5,287.5 435.5,287.5 441.5,287.5C 441.5,288.167 441.5,288.833 441.5,289.5C 438.833,289.5 436.167,289.5 433.5,289.5C 433.167,289.5 432.833,289.5 432.5,289.5C 429.5,289.5 426.5,289.5 423.5,289.5C 423.5,288.833 423.5,288.167 423.5,287.5 Z"/></g>
<g><path style="opacity:1" fill="#a62529" d="M 342.5,289.5 C 345.167,289.5 347.833,289.5 350.5,289.5C 350.5,292.5 350.5,295.5 350.5,298.5C 347.833,298.5 345.167,298.5 342.5,298.5C 342.5,295.5 342.5,292.5 342.5,289.5 Z"/></g>
<g><path style="opacity:1" fill="#a6252a" d="M 351.5,289.5 C 354.5,289.5 357.5,289.5 360.5,289.5C 360.5,292.5 360.5,295.5 360.5,298.5C 357.5,298.5 354.5,298.5 351.5,298.5C 351.5,295.5 351.5,292.5 351.5,289.5 Z"/></g>
<g><path style="opacity:1" fill="#963234" d="M 362.5,270.5 C 364.819,270.992 366.819,271.992 368.5,273.5C 368.143,285.216 368.143,297.216 368.5,309.5C 366.5,309.5 364.5,309.5 362.5,309.5C 362.5,296.5 362.5,283.5 362.5,270.5 Z"/></g>
<g><path style="opacity:1" fill="#6d6e70" d="M 403.5,290.5 C 403.672,291.492 403.338,292.158 402.5,292.5C 398.858,291.953 395.358,291.953 392,292.5C 389.966,292.646 388.299,291.98 387,290.5C 385.599,292.192 383.766,292.859 381.5,292.5C 380.662,292.158 380.328,291.492 380.5,290.5C 382.167,290.5 383.833,290.5 385.5,290.5C 385.338,288.473 385.505,286.473 386,284.5C 386.49,285.793 386.657,287.127 386.5,288.5C 390.167,288.5 393.833,288.5 397.5,288.5C 398.045,284.828 398.378,285.162 398.5,289.5C 400.415,289.216 402.081,289.549 403.5,290.5 Z"/></g>
<g><path style="opacity:1" fill="#a6252a" d="M 423.5,289.5 C 426.5,289.5 429.5,289.5 432.5,289.5C 432.5,292.5 432.5,295.5 432.5,298.5C 429.5,298.5 426.5,298.5 423.5,298.5C 423.5,295.5 423.5,292.5 423.5,289.5 Z"/></g>
<g><path style="opacity:1" fill="#a62529" d="M 433.5,289.5 C 436.167,289.5 438.833,289.5 441.5,289.5C 441.5,292.5 441.5,295.5 441.5,298.5C 438.833,298.5 436.167,298.5 433.5,298.5C 433.5,295.5 433.5,292.5 433.5,289.5 Z"/></g>
<g><path style="opacity:1" fill="#922d2c" d="M 444.5,289.5 C 446.167,289.5 447.833,289.5 449.5,289.5C 449.5,298.167 449.5,306.833 449.5,315.5C 447.833,315.5 446.167,315.5 444.5,315.5C 444.5,306.833 444.5,298.167 444.5,289.5 Z"/></g>
<g><path style="opacity:1" fill="#a62529" d="M 452.5,289.5 C 455.167,289.5 457.833,289.5 460.5,289.5C 460.5,292.5 460.5,295.5 460.5,298.5C 457.833,298.5 455.167,298.5 452.5,298.5C 452.5,295.5 452.5,292.5 452.5,289.5 Z"/></g>
<g><path style="opacity:1" fill="#a6252a" d="M 470.5,289.5 C 470.5,292.5 470.5,295.5 470.5,298.5C 467.5,298.5 464.5,298.5 461.5,298.5C 461.5,295.5 461.5,292.5 461.5,289.5C 464.5,289.5 467.5,289.5 470.5,289.5 Z"/></g>
<g><path style="opacity:1" fill="#80505b" d="M 472.5,245.5 C 472.169,269.006 472.502,292.339 473.5,315.5C 473.5,317.5 473.5,319.5 473.5,321.5C 472.833,320.167 472.167,318.833 471.5,317.5C 471.167,317.5 470.833,317.5 470.5,317.5C 470.5,314.167 470.5,310.833 470.5,307.5C 470.5,304.833 470.5,302.167 470.5,299.5C 470.5,299.167 470.5,298.833 470.5,298.5C 470.5,295.5 470.5,292.5 470.5,289.5C 470.5,288.833 470.5,288.167 470.5,287.5C 470.829,273.99 470.496,260.656 469.5,247.5C 470.29,246.599 471.29,245.932 472.5,245.5 Z"/></g>
<g><path style="opacity:1" fill="#acacad" d="M 402.5,292.5 C 401.925,294.411 400.925,296.078 399.5,297.5C 394.435,300.112 389.435,300.112 384.5,297.5C 383.11,296.101 382.11,294.434 381.5,292.5C 383.766,292.859 385.599,292.192 387,290.5C 388.299,291.98 389.966,292.646 392,292.5C 395.358,291.953 398.858,291.953 402.5,292.5 Z"/></g>
<g><path style="opacity:1" fill="#1c1814" d="M 292.5,307.5 C 291.5,309.167 290.167,310.5 288.5,311.5C 284.089,315.04 279.423,317.373 274.5,318.5C 278.668,316.25 282.668,313.75 286.5,311C 289.433,308.736 291.6,305.902 293,302.5C 293.333,293.5 293.667,284.5 294,275.5C 295.268,270.363 296.934,265.363 299,260.5C 301.005,253.51 298.505,250.676 291.5,252C 282.604,257.62 278.271,265.787 278.5,276.5C 272.398,276.752 267.065,278.752 262.5,282.5C 258.147,285.854 254.48,289.854 251.5,294.5C 251.167,294.333 250.833,294.167 250.5,294C 255.387,284.882 262.721,278.548 272.5,275C 270.42,271.763 268.92,268.263 268,264.5C 266.773,259.97 267.606,255.97 270.5,252.5C 274.817,253.689 279.15,253.689 283.5,252.5C 283.443,253.609 283.11,254.609 282.5,255.5C 278.445,255.176 274.445,255.509 270.5,256.5C 269.313,263.276 270.98,269.276 275.5,274.5C 276.678,267.95 279.012,261.95 282.5,256.5C 283.833,255.833 284.833,254.833 285.5,253.5C 289.778,250.744 294.444,249.911 299.5,251C 300.894,252.739 301.561,254.739 301.5,257C 298.939,264.019 296.772,271.186 295,278.5C 294.358,284.518 294.525,290.518 295.5,296.5C 295.265,300.446 294.265,304.113 292.5,307.5 Z M 282.5,255.5 C 282.5,255.833 282.5,256.167 282.5,256.5C 279.012,261.95 276.678,267.95 275.5,274.5C 270.98,269.276 269.313,263.276 270.5,256.5C 274.445,255.509 278.445,255.176 282.5,255.5 Z"/></g>
<g><path style="opacity:1" fill="#7d2728" d="M 350.5,289.5 C 350.833,289.5 351.167,289.5 351.5,289.5C 351.5,292.5 351.5,295.5 351.5,298.5C 354.5,298.5 357.5,298.5 360.5,298.5C 360.5,298.833 360.5,299.167 360.5,299.5C 357.5,299.5 354.5,299.5 351.5,299.5C 351.5,302.167 351.5,304.833 351.5,307.5C 351.167,307.5 350.833,307.5 350.5,307.5C 350.5,304.833 350.5,302.167 350.5,299.5C 347.833,299.5 345.167,299.5 342.5,299.5C 342.5,299.167 342.5,298.833 342.5,298.5C 345.167,298.5 347.833,298.5 350.5,298.5C 350.5,295.5 350.5,292.5 350.5,289.5 Z"/></g>
<g><path style="opacity:1" fill="#7d2728" d="M 432.5,289.5 C 432.833,289.5 433.167,289.5 433.5,289.5C 433.5,292.5 433.5,295.5 433.5,298.5C 436.167,298.5 438.833,298.5 441.5,298.5C 441.5,298.833 441.5,299.167 441.5,299.5C 438.833,299.5 436.167,299.5 433.5,299.5C 433.5,302.167 433.5,304.833 433.5,307.5C 433.167,307.5 432.833,307.5 432.5,307.5C 432.5,304.833 432.5,302.167 432.5,299.5C 429.5,299.5 426.5,299.5 423.5,299.5C 423.5,299.167 423.5,298.833 423.5,298.5C 426.5,298.5 429.5,298.5 432.5,298.5C 432.5,295.5 432.5,292.5 432.5,289.5 Z"/></g>
<g><path style="opacity:1" fill="#9c433e" d="M 452.5,287.5 C 458.5,287.5 464.5,287.5 470.5,287.5C 470.5,288.167 470.5,288.833 470.5,289.5C 467.5,289.5 464.5,289.5 461.5,289.5C 461.5,292.5 461.5,295.5 461.5,298.5C 464.5,298.5 467.5,298.5 470.5,298.5C 470.5,298.833 470.5,299.167 470.5,299.5C 467.5,299.5 464.5,299.5 461.5,299.5C 461.5,302.167 461.5,304.833 461.5,307.5C 464.5,307.5 467.5,307.5 470.5,307.5C 470.5,310.833 470.5,314.167 470.5,317.5C 464.62,319.065 458.62,319.732 452.5,319.5C 452.5,315.5 452.5,311.5 452.5,307.5C 455.167,307.5 457.833,307.5 460.5,307.5C 460.5,304.833 460.5,302.167 460.5,299.5C 457.833,299.5 455.167,299.5 452.5,299.5C 452.5,299.167 452.5,298.833 452.5,298.5C 455.167,298.5 457.833,298.5 460.5,298.5C 460.5,295.5 460.5,292.5 460.5,289.5C 457.833,289.5 455.167,289.5 452.5,289.5C 452.5,288.833 452.5,288.167 452.5,287.5 Z"/></g>
<g><path style="opacity:1" fill="#824b54" d="M 311.5,245.5 C 312.71,245.932 313.71,246.599 314.5,247.5C 313.504,260.656 313.171,273.99 313.5,287.5C 313.5,288.167 313.5,288.833 313.5,289.5C 313.5,298.833 313.5,308.167 313.5,317.5C 310.064,316.808 306.73,315.808 303.5,314.5C 303.343,313.127 303.51,311.793 304,310.5C 305.487,311.253 305.654,312.086 304.5,313C 306.81,313.497 309.143,313.663 311.5,313.5C 311.5,290.833 311.5,268.167 311.5,245.5 Z"/></g>
<g><path style="opacity:1" fill="#8c4a51" d="M 335.5,257.5 C 336.167,257.5 336.833,257.5 337.5,257.5C 339.364,259.014 341.364,260.347 343.5,261.5C 342.507,269.984 342.174,278.651 342.5,287.5C 342.5,288.167 342.5,288.833 342.5,289.5C 342.5,292.5 342.5,295.5 342.5,298.5C 342.5,298.833 342.5,299.167 342.5,299.5C 342.5,302.167 342.5,304.833 342.5,307.5C 342.5,311.5 342.5,315.5 342.5,319.5C 341.5,319.5 340.5,319.5 339.5,319.5C 339.5,300.167 339.5,280.833 339.5,261.5C 338.167,261.5 336.833,261.5 335.5,261.5C 335.5,260.167 335.5,258.833 335.5,257.5 Z"/></g>
<g><path style="opacity:1" fill="#a62529" d="M 342.5,299.5 C 345.167,299.5 347.833,299.5 350.5,299.5C 350.5,302.167 350.5,304.833 350.5,307.5C 347.833,307.5 345.167,307.5 342.5,307.5C 342.5,304.833 342.5,302.167 342.5,299.5 Z"/></g>
<g><path style="opacity:1" fill="#a6252a" d="M 360.5,299.5 C 360.5,302.167 360.5,304.833 360.5,307.5C 357.5,307.5 354.5,307.5 351.5,307.5C 351.5,304.833 351.5,302.167 351.5,299.5C 354.5,299.5 357.5,299.5 360.5,299.5 Z"/></g>
<g><path style="opacity:1" fill="#834d59" d="M 360.5,269.5 C 361.492,269.328 362.158,269.662 362.5,270.5C 362.5,283.5 362.5,296.5 362.5,309.5C 364.5,309.5 366.5,309.5 368.5,309.5C 368.143,297.216 368.143,285.216 368.5,273.5C 369.791,273.263 370.791,273.596 371.5,274.5C 370.505,285.988 370.172,297.655 370.5,309.5C 367.765,312.201 364.431,313.868 360.5,314.5C 360.5,312.167 360.5,309.833 360.5,307.5C 360.5,304.833 360.5,302.167 360.5,299.5C 360.5,299.167 360.5,298.833 360.5,298.5C 360.5,295.5 360.5,292.5 360.5,289.5C 360.5,288.833 360.5,288.167 360.5,287.5C 360.5,281.5 360.5,275.5 360.5,269.5 Z"/></g>
<g><path style="opacity:1" fill="#a22e30" d="M 371.5,274.5 C 375.147,275.657 378.48,277.323 381.5,279.5C 380.406,281.865 379.739,284.365 379.5,287C 379.514,288.385 379.848,289.551 380.5,290.5C 380.328,291.492 380.662,292.158 381.5,292.5C 382.11,294.434 383.11,296.101 384.5,297.5C 380.778,302.189 376.445,306.189 371.5,309.5C 371.167,309.5 370.833,309.5 370.5,309.5C 370.172,297.655 370.505,285.988 371.5,274.5 Z"/></g>
<g><path style="opacity:1" fill="#a22e30" d="M 412.5,274.5 C 413.495,285.988 413.828,297.655 413.5,309.5C 412.833,309.5 412.167,309.5 411.5,309.5C 407.215,305.881 403.215,301.881 399.5,297.5C 400.925,296.078 401.925,294.411 402.5,292.5C 403.338,292.158 403.672,291.492 403.5,290.5C 404.152,289.551 404.486,288.385 404.5,287C 404.261,284.365 403.594,281.865 402.5,279.5C 405.515,277.326 408.849,275.659 412.5,274.5 Z"/></g>
<g><path style="opacity:1" fill="#824d58" d="M 423.5,269.5 C 423.5,275.5 423.5,281.5 423.5,287.5C 423.5,288.167 423.5,288.833 423.5,289.5C 423.5,292.5 423.5,295.5 423.5,298.5C 423.5,298.833 423.5,299.167 423.5,299.5C 423.5,302.167 423.5,304.833 423.5,307.5C 423.5,309.833 423.5,312.167 423.5,314.5C 419.569,313.868 416.235,312.201 413.5,309.5C 413.828,297.655 413.495,285.988 412.5,274.5C 413.209,273.596 414.209,273.263 415.5,273.5C 415.5,284.833 415.5,296.167 415.5,307.5C 417.5,307.5 419.5,307.5 421.5,307.5C 421.5,295.167 421.5,282.833 421.5,270.5C 421.842,269.662 422.508,269.328 423.5,269.5 Z"/></g>
<g><path style="opacity:1" fill="#a6252a" d="M 423.5,299.5 C 426.5,299.5 429.5,299.5 432.5,299.5C 432.5,302.167 432.5,304.833 432.5,307.5C 429.5,307.5 426.5,307.5 423.5,307.5C 423.5,304.833 423.5,302.167 423.5,299.5 Z"/></g>
<g><path style="opacity:1" fill="#a62529" d="M 441.5,299.5 C 441.5,302.167 441.5,304.833 441.5,307.5C 438.833,307.5 436.167,307.5 433.5,307.5C 433.5,304.833 433.5,302.167 433.5,299.5C 436.167,299.5 438.833,299.5 441.5,299.5 Z"/></g>
<g><path style="opacity:1" fill="#7e4f5d" d="M 450.5,256.5 C 450.842,255.662 451.508,255.328 452.5,255.5C 452.5,266.167 452.5,276.833 452.5,287.5C 452.5,288.167 452.5,288.833 452.5,289.5C 452.5,292.5 452.5,295.5 452.5,298.5C 452.5,298.833 452.5,299.167 452.5,299.5C 452.5,302.167 452.5,304.833 452.5,307.5C 452.5,311.5 452.5,315.5 452.5,319.5C 452.167,319.5 451.833,319.5 451.5,319.5C 451.831,298.327 451.497,277.327 450.5,256.5 Z"/></g>
<g><path style="opacity:1" fill="#a62529" d="M 452.5,299.5 C 455.167,299.5 457.833,299.5 460.5,299.5C 460.5,302.167 460.5,304.833 460.5,307.5C 457.833,307.5 455.167,307.5 452.5,307.5C 452.5,304.833 452.5,302.167 452.5,299.5 Z"/></g>
<g><path style="opacity:1" fill="#a6252a" d="M 470.5,299.5 C 470.5,302.167 470.5,304.833 470.5,307.5C 467.5,307.5 464.5,307.5 461.5,307.5C 461.5,304.833 461.5,302.167 461.5,299.5C 464.5,299.5 467.5,299.5 470.5,299.5 Z"/></g>
<g><path style="opacity:1" fill="#484548" d="M 384.5,297.5 C 389.435,300.112 394.435,300.112 399.5,297.5C 403.215,301.881 407.215,305.881 411.5,309.5C 398.167,309.5 384.833,309.5 371.5,309.5C 376.445,306.189 380.778,302.189 384.5,297.5 Z"/></g>
<g><path style="opacity:1" fill="#a33131" d="M 313.5,289.5 C 319.5,289.5 325.5,289.5 331.5,289.5C 331.5,299.5 331.5,309.5 331.5,319.5C 325.38,319.732 319.38,319.065 313.5,317.5C 313.5,308.167 313.5,298.833 313.5,289.5 Z"/></g>
<g><path style="opacity:1" fill="#a13a38" d="M 342.5,307.5 C 345.167,307.5 347.833,307.5 350.5,307.5C 350.833,307.5 351.167,307.5 351.5,307.5C 354.5,307.5 357.5,307.5 360.5,307.5C 360.5,309.833 360.5,312.167 360.5,314.5C 354.859,317.08 348.859,318.746 342.5,319.5C 342.5,315.5 342.5,311.5 342.5,307.5 Z"/></g>
<g><path style="opacity:1" fill="#9d423b" d="M 423.5,307.5 C 426.5,307.5 429.5,307.5 432.5,307.5C 432.833,307.5 433.167,307.5 433.5,307.5C 436.167,307.5 438.833,307.5 441.5,307.5C 441.5,311.5 441.5,315.5 441.5,319.5C 435.141,318.746 429.141,317.08 423.5,314.5C 423.5,312.167 423.5,309.833 423.5,307.5 Z"/></g>
<g><path style="opacity:0.562" fill="#0f0e0b" d="M 471.5,317.5 C 472.167,318.833 472.833,320.167 473.5,321.5C 476.776,329.109 482.11,334.776 489.5,338.5C 492.803,342.156 496.803,344.822 501.5,346.5C 506.05,349.391 510.384,349.057 514.5,345.5C 514.489,347.017 513.823,348.184 512.5,349C 505.532,350.462 499.199,349.129 493.5,345C 484.333,339.833 477.167,332.667 472,323.5C 471.505,321.527 471.338,319.527 471.5,317.5 Z"/></g>
<g><path style="opacity:0.539" fill="#161511" d="M 289.5,314.5 C 291.522,321.645 289.188,327.145 282.5,331C 270.897,337.205 258.564,339.871 245.5,339C 241.911,337.326 240.245,334.493 240.5,330.5C 241.41,332.019 242.243,333.685 243,335.5C 248.028,337.738 253.195,338.072 258.5,336.5C 264.949,335.137 271.283,333.304 277.5,331C 285.652,328.369 289.652,322.869 289.5,314.5 Z"/></g>
</svg>
